# xmcd
#
# Track frame offsets:
#	150
#	18672
#	39739
#	54570
#	72377
#	83797
#	103587
#	118075
#	134850
#	149672
#
# Disc length: 2170 seconds
#
# Revision: 1
# Processed by: cddbd v1.5.1PL2 Copyright (c) Steve Scherf et al.
# Submitted via: audiograbber 1.83.01
#
DISCID=9d08780a
DTITLE=Allan Michael Barbish - Ride Cowgirl Ride
DYEAR=1996
DGENRE=country
TTITLE0=Ride 'Em Wild
TTITLE1=Faraway
TTITLE2=Ride Cowgirl Ride
TTITLE3=Another Angel
TTITLE4=After I Marry You
TTITLE5=Too Hot For Tears
TTITLE6=Remember Last Time
TTITLE7=Misunderstanding Woman
TTITLE8=Break My Heart Softly
TTITLE9=Slow Down For Love
EXTD=
EXTT0=
EXTT1=
EXTT2=
EXTT3=
EXTT4=
EXTT5=
EXTT6=
EXTT7=
EXTT8=
EXTT9=
PLAYORDER=
